<svg width="41" height="38" viewBox="0 0 41 38" fill="none" xmlns="http://www.w3.org/2000/svg"><path fill-rule="evenodd" clip-rule="evenodd" d="M35.3553 19.1359V19.1338V19.1316C35.3546 18.7599 35.1979 18.3883 34.8849 18.1047L23.6447 7.91748C23.0176 7.34912 22.0009 7.34912 21.3738 7.91748C20.7467 8.48576 20.7467 9.40725 21.3738 9.97561L29.912 17.714H6.49102C5.42826 17.714 4.88092 18.3496 4.88092 19.1338C4.88092 19.9179 5.42826 20.5536 6.49102 20.5536H29.912L21.3738 28.2919C20.7467 28.8603 20.7467 29.7818 21.3738 30.3501C22.0009 30.9184 23.0176 30.9184 23.6447 30.3501L34.8849 20.1629C35.1979 19.8792 35.3546 19.5076 35.3553 19.1359Z" fill="white"></path></svg>